<svg width="181" height="41" viewBox="0 0 181 41" fill="none" xmlns="http://www.w3.org/2000/svg">
<line x1="1" y1="31.4568" x2="1" y2="8.72136" stroke="#0F7EEA" stroke-width="2" stroke-linecap="round"/>
<line x1="4.89136" y1="30.6035" x2="4.89136" y2="9.57459" stroke="#0F7EEA" stroke-width="2" stroke-linecap="round"/>
<line x1="8.78259" y1="38.8424" x2="8.78259" y2="1.33572" stroke="#0F7EEA" stroke-width="2" stroke-linecap="round"/>
<line x1="12.674" y1="27.247" x2="12.674" y2="12.9311" stroke="#0F7EEA" stroke-width="2" stroke-linecap="round"/>
<line x1="16.5652" y1="35.0039" x2="16.5652" y2="5.17423" stroke="#0F7EEA" stroke-width="2" stroke-linecap="round"/>
<line x1="20.4565" y1="26.9041" x2="20.4565" y2="13.274" stroke="#0F7EEA" stroke-width="2" stroke-linecap="round"/>
<line x1="24.3478" y1="24.6857" x2="24.3478" y2="15.4924" stroke="#0F7EEA" stroke-width="2" stroke-linecap="round"/>
<line x1="28.2391" y1="32.6409" x2="28.2391" y2="7.53724" stroke="#0F7EEA" stroke-width="2" stroke-linecap="round"/>
<line x1="32.1305" y1="33.6627" x2="32.1305" y2="6.51543" stroke="#0F7EEA" stroke-width="2" stroke-linecap="round"/>
<line x1="36.0217" y1="25.4893" x2="36.0217" y2="14.6889" stroke="#0F7EEA" stroke-width="2" stroke-linecap="round"/>
<line x1="39.9131" y1="35.1124" x2="39.9131" y2="5.06575" stroke="#0F7EEA" stroke-width="2" stroke-linecap="round"/>
<line x1="43.8043" y1="39.1781" x2="43.8043" y2="1" stroke="#0F7EEA" stroke-width="2" stroke-linecap="round"/>
<line x1="47.6957" y1="33.9548" x2="47.6957" y2="6.2233" stroke="#0F7EEA" stroke-width="2" stroke-linecap="round"/>
<line x1="51.5869" y1="38.1497" x2="51.5869" y2="2.02835" stroke="#0F7EEA" stroke-width="2" stroke-linecap="round"/>
<line x1="55.4783" y1="33.7037" x2="55.4783" y2="6.47444" stroke="#0F7EEA" stroke-width="2" stroke-linecap="round"/>
<line x1="59.3695" y1="33.4003" x2="59.3695" y2="6.77786" stroke="#0F7EEA" stroke-width="2" stroke-linecap="round"/>
<line x1="63.2609" y1="27.0891" x2="63.2609" y2="13.089" stroke="#0F7EEA" stroke-width="2" stroke-linecap="round"/>
<line x1="67.1522" y1="35.8348" x2="67.1522" y2="4.34332" stroke="#0F7EEA" stroke-width="2" stroke-linecap="round"/>
<line x1="71.0435" y1="27.9333" x2="71.0435" y2="12.2448" stroke="#0F7EEA" stroke-width="2" stroke-linecap="round"/>
<line x1="74.9348" y1="30.161" x2="74.9348" y2="10.0171" stroke="#0F7EEA" stroke-width="2" stroke-linecap="round"/>
<line x1="78.826" y1="31.8931" x2="78.826" y2="8.28505" stroke="#0F7EEA" stroke-width="2" stroke-linecap="round"/>
<line x1="82.7174" y1="35.3744" x2="82.7174" y2="4.80375" stroke="#0F7EEA" stroke-width="2" stroke-linecap="round"/>
<line x1="86.6086" y1="28.6156" x2="86.6086" y2="11.5626" stroke="#0F7EEA" stroke-width="2" stroke-linecap="round"/>
<line x1="90.5" y1="37.0957" x2="90.5" y2="3.08241" stroke="#0F7EEA" stroke-width="2" stroke-linecap="round"/>
<line x1="94.3914" y1="25.166" x2="94.3914" y2="15.0121" stroke="#0F7EEA" stroke-width="2" stroke-linecap="round"/>
<line x1="98.2826" y1="33.1581" x2="98.2826" y2="7.02005" stroke="#0F7EEA" stroke-width="2" stroke-linecap="round"/>
<line x1="102.174" y1="32.8629" x2="102.174" y2="7.31522" stroke="#0F7EEA" stroke-width="2" stroke-linecap="round"/>
<line x1="106.065" y1="37.9595" x2="106.065" y2="2.2186" stroke="#0F7EEA" stroke-width="2" stroke-linecap="round"/>
<line x1="109.957" y1="29.2381" x2="109.957" y2="10.94" stroke="#0F7EEA" stroke-width="2" stroke-linecap="round"/>
<line x1="113.848" y1="35.3241" x2="113.848" y2="4.85398" stroke="#0F7EEA" stroke-width="2" stroke-linecap="round"/>
<line x1="117.739" y1="31.394" x2="117.739" y2="8.78409" stroke="#0F7EEA" stroke-width="2" stroke-linecap="round"/>
<line x1="121.63" y1="25.2456" x2="121.63" y2="14.9325" stroke="#0F7EEA" stroke-width="2" stroke-linecap="round"/>
<line x1="125.522" y1="25.8322" x2="125.522" y2="14.3459" stroke="#0F7EEA" stroke-width="2" stroke-linecap="round"/>
<line x1="129.413" y1="27.3603" x2="129.413" y2="12.8178" stroke="#0F7EEA" stroke-width="2" stroke-linecap="round"/>
<line x1="133.304" y1="37.8549" x2="133.304" y2="2.32322" stroke="#0F7EEA" stroke-width="2" stroke-linecap="round"/>
<line x1="137.196" y1="28.0362" x2="137.196" y2="12.1419" stroke="#0F7EEA" stroke-width="2" stroke-linecap="round"/>
<line x1="141.087" y1="37.3132" x2="141.087" y2="2.86491" stroke="#0F7EEA" stroke-width="2" stroke-linecap="round"/>
<line x1="144.978" y1="25.6317" x2="144.978" y2="14.5464" stroke="#0F7EEA" stroke-width="2" stroke-linecap="round"/>
<line x1="148.87" y1="39.1357" x2="148.87" y2="1.04239" stroke="#0F7EEA" stroke-width="2" stroke-linecap="round"/>
<line x1="152.761" y1="36.306" x2="152.761" y2="3.87217" stroke="#0F7EEA" stroke-width="2" stroke-linecap="round"/>
<line x1="156.652" y1="33.7394" x2="156.652" y2="6.43875" stroke="#0F7EEA" stroke-width="2" stroke-linecap="round"/>
<line x1="160.543" y1="29.7152" x2="160.543" y2="10.4629" stroke="#0F7EEA" stroke-width="2" stroke-linecap="round"/>
<line x1="164.435" y1="29.7671" x2="164.435" y2="10.411" stroke="#0F7EEA" stroke-width="2" stroke-linecap="round"/>
<line x1="168.326" y1="29.3266" x2="168.326" y2="10.8515" stroke="#0F7EEA" stroke-width="2" stroke-linecap="round"/>
<line x1="172.217" y1="37.312" x2="172.217" y2="2.86615" stroke="#0F7EEA" stroke-width="2" stroke-linecap="round"/>
<line x1="176.109" y1="31.9224" x2="176.109" y2="8.25575" stroke="#0F7EEA" stroke-width="2" stroke-linecap="round"/>
<line x1="180" y1="32.1348" x2="180" y2="8.04338" stroke="#0F7EEA" stroke-width="2" stroke-linecap="round"/>
</svg>
